<?xml version="1.0" standalone="no"?>
<!DOCTYPE svg PUBLIC "-//W3C//DTD SVG 20010904//EN"
 "http://www.w3.org/TR/2001/REC-SVG-20010904/DTD/svg10.dtd">
<svg version="1.0" xmlns="http://www.w3.org/2000/svg"
 width="240.000000pt" height="240.000000pt" viewBox="0 0 240.000000 240.000000"
 preserveAspectRatio="xMidYMid meet">

<g transform="translate(0.000000,240.000000) scale(0.100000,-0.100000)"
fill="#000000" stroke="none">
<path d="M420 2393 c-52 -8 -147 -47 -197 -80 -88 -58 -149 -137 -194 -248
l-24 -60 -3 -768 c-2 -504 1 -788 8 -825 32 -174 158 -320 330 -383 l65 -24
795 0 795 0 65 24 c83 30 159 80 211 139 50 57 105 167 119 241 14 73 14 1509
0 1582 -14 74 -69 184 -119 241 -50 56 -125 107 -206 139 l-60 24 -780 1
c-429 1 -791 0 -805 -3z m328 -346 c48 -31 74 -84 74 -147 -1 -101 -71 -170
-172 -170 -101 0 -171 69 -172 170 -1 143 151 226 270 147z m52 -997 l0 -550
-150 0 -150 0 0 550 0 550 150 0 150 0 0 -550z m500 469 l0 -81 60 55 c71 66
145 97 246 104 150 11 279 -59 344 -187 46 -90 50 -132 50 -532 l0 -378 -149
0 -150 0 -3 318 -3 317 -27 55 c-83 166 -298 138 -354 -46 -11 -36 -14 -117
-14 -346 l0 -298 -150 0 -150 0 0 550 0 550 150 0 150 0 0 -81z"/>
</g>
</svg>
