<?xml version="1.0" standalone="no"?>
<!DOCTYPE svg PUBLIC "-//W3C//DTD SVG 20010904//EN"
 "http://www.w3.org/TR/2001/REC-SVG-20010904/DTD/svg10.dtd">
<svg version="1.0" xmlns="http://www.w3.org/2000/svg"
 width="725.000000pt" height="223.000000pt" viewBox="0 0 725.000000 223.000000"
 preserveAspectRatio="xMidYMid meet">

<g transform="translate(0.000000,223.000000) scale(0.100000,-0.100000)"
fill="#FFFFFF" stroke="none">
<path d="M2905 1817 c-153 -50 -378 -304 -518 -583 -46 -91 -46 -91 -140 -152
-264 -171 -515 -270 -734 -291 -132 -12 -265 3 -485 53 -303 70 -306 70 -448
70 -194 1 -320 -37 -414 -124 -62 -58 -58 -70 6 -19 118 93 217 123 403 122
138 0 189 -9 465 -80 252 -64 385 -75 564 -47 180 29 408 117 610 238 43 26
80 45 81 44 2 -2 -8 -43 -21 -93 -45 -167 -29 -320 36 -352 35 -18 98 -16 142
5 103 48 319 261 423 418 20 30 40 54 45 54 5 0 25 -25 44 -55 37 -57 64 -72
112 -62 29 5 29 20 3 -131 -15 -82 -7 -107 31 -107 20 0 33 19 85 120 80 157
149 258 224 328 63 58 89 71 76 40 -4 -10 -9 -42 -12 -70 -5 -44 -3 -54 12
-59 10 -4 26 -2 36 4 15 10 23 9 38 -5 18 -14 18 -19 6 -42 -7 -14 -23 -59
-35 -99 -24 -80 -22 -132 6 -163 39 -43 84 -19 214 118 57 59 101 101 98 92
-38 -105 -61 -198 -65 -264 -5 -76 -4 -81 22 -109 24 -26 31 -28 73 -23 41 4
53 12 93 56 26 27 68 87 95 131 l48 82 13 -38 c18 -50 37 -70 89 -90 56 -21
99 -14 189 30 48 24 93 57 143 108 l72 72 0 -44 c0 -91 64 -141 162 -126 62 9
128 51 248 156 168 147 266 195 400 195 84 0 122 -11 310 -90 363 -152 706
-242 1007 -264 170 -13 383 -3 383 17 0 4 -48 4 -107 -1 -346 -28 -794 68
-1290 277 -182 77 -230 89 -327 84 -110 -6 -195 -48 -384 -190 -81 -60 -157
-114 -170 -119 -13 -5 -43 -9 -67 -9 -53 0 -67 19 -67 90 0 71 9 88 60 114 78
40 162 147 162 205 0 47 -70 67 -128 37 -42 -21 -131 -121 -201 -223 -106
-156 -242 -263 -332 -263 -41 0 -69 26 -69 65 0 50 83 225 148 309 45 59 59
66 64 30 4 -38 25 -41 33 -6 14 66 -34 107 -96 82 -49 -21 -140 -129 -191
-230 -124 -242 -238 -400 -287 -400 -21 0 -23 3 -16 38 3 20 33 132 66 249 35
121 59 226 57 245 -5 52 -32 48 -69 -11 -17 -28 -34 -51 -38 -51 -4 0 -13 16
-20 35 -15 42 -54 75 -89 75 -35 0 -100 -40 -145 -90 -32 -36 -40 -40 -53 -29
-13 11 -15 26 -9 85 6 70 6 73 -18 89 -24 15 -28 15 -65 -4 -62 -32 -93 -62
-187 -186 -48 -63 -89 -114 -91 -113 -1 2 6 44 17 93 30 145 22 220 -24 213
-19 -3 -26 -18 -56 -130 -33 -121 -36 -128 -67 -143 -44 -21 -65 -9 -101 57
-15 28 -40 60 -55 71 -25 19 -33 19 -77 9 -75 -17 -181 -68 -181 -87 0 -26 28
-29 91 -10 32 10 61 16 64 13 16 -16 -164 -237 -241 -296 -65 -51 -146 -92
-182 -92 -41 0 -52 25 -52 118 1 215 193 581 435 828 106 108 166 147 218 142
68 -6 84 -119 37 -257 -10 -31 -15 -60 -10 -64 15 -16 61 81 77 160 18 92 8
146 -36 195 -22 25 -36 31 -77 34 -27 2 -67 -2 -89 -9z m1986 -644 c-20 -39
-92 -113 -111 -113 -18 0 -11 17 34 78 71 96 120 118 77 35z m-1047 -44 c13
-23 17 -44 13 -62 -8 -27 -187 -217 -224 -236 -21 -11 -23 -9 -23 12 0 67 55
193 120 276 51 64 84 67 114 10z"/>
</g>
</svg>
