<?xml version="1.0" standalone="no"?>
<!DOCTYPE svg PUBLIC "-//W3C//DTD SVG 20010904//EN"
 "http://www.w3.org/TR/2001/REC-SVG-20010904/DTD/svg10.dtd">
<svg version="1.0" xmlns="http://www.w3.org/2000/svg"
 width="240.000000pt" height="240.000000pt" viewBox="0 0 240.000000 240.000000"
 preserveAspectRatio="xMidYMid meet">

<g transform="translate(0.000000,240.000000) scale(0.100000,-0.100000)"
fill="#000000" stroke="none">
<path d="M1171 1675 c-623 -233 -1140 -429 -1147 -437 -7 -7 -16 -28 -20 -45
-12 -62 18 -78 328 -172 l278 -85 111 -335 c65 -197 120 -345 132 -359 14 -15
32 -22 59 -22 35 0 49 11 202 155 l165 156 276 -201 c152 -111 292 -208 311
-218 31 -14 39 -15 76 -2 27 10 48 26 59 45 10 17 100 430 208 950 206 990
201 958 145 984 -14 6 -30 11 -37 10 -7 0 -522 -191 -1146 -424z m797 54 c2
-11 -171 -173 -510 -480 l-513 -462 -6 -56 c-4 -31 -12 -109 -19 -174 -7 -65
-14 -116 -16 -114 -6 5 -164 529 -164 541 1 18 1182 767 1205 764 11 -2 21
-10 23 -19z"/>
</g>
</svg>
